<?xml version="1.0" standalone="no"?>
<!DOCTYPE svg PUBLIC "-//W3C//DTD SVG 20010904//EN"
 "http://www.w3.org/TR/2001/REC-SVG-20010904/DTD/svg10.dtd">
<svg version="1.0" xmlns="http://www.w3.org/2000/svg"
 width="1710.000000pt" height="2168.000000pt" viewBox="0 0 1710.000000 2168.000000"
 preserveAspectRatio="xMidYMid meet">

<g transform="translate(0.000000,2168.000000) scale(0.100000,-0.100000)"
fill="#000000" stroke="none">
<path d="M8393 21506 c-240 -181 -625 -317 -1246 -441 -122 -24 -482 -87 -801
-140 -917 -152 -1304 -234 -1666 -355 -695 -231 -1041 -526 -1150 -983 -11
-45 -20 -96 -20 -113 0 -17 -3 -45 -6 -61 -6 -29 -9 -31 -72 -37 -173 -18
-401 -85 -580 -171 -370 -178 -687 -486 -964 -935 -163 -264 -302 -549 -568
-1165 -79 -181 -178 -405 -221 -497 -270 -578 -508 -893 -816 -1081 l-51 -32
24 -60 c97 -236 138 -505 138 -905 0 -338 -20 -560 -99 -1152 -20 -145 -47
-344 -60 -443 -131 -987 -98 -1552 115 -1976 68 -134 199 -301 311 -396 l36
-30 -24 -104 c-35 -145 -36 -368 -5 -516 74 -343 269 -669 639 -1066 164 -175
340 -340 807 -756 653 -580 889 -824 1088 -1121 132 -198 213 -395 239 -585 8
-55 16 -84 23 -82 99 38 353 42 516 8 217 -45 422 -115 725 -246 162 -70 310
-139 914 -429 601 -289 996 -444 1359 -536 636 -160 1140 -94 1549 202 l51 37
92 -55 c449 -271 980 -328 1610 -173 355 88 702 223 1450 566 411 189 640 287
852 367 390 146 716 216 1004 216 91 0 126 3 128 13 2 6 11 53 21 102 45 244
184 534 386 801 166 220 433 495 983 1015 540 510 805 834 982 1204 144 302
204 584 190 900 -3 83 -13 186 -21 230 -20 110 -20 108 28 128 161 66 339 220
435 377 93 151 159 352 199 605 15 90 18 175 18 460 0 418 -6 491 -110 1320
-98 784 -108 898 -109 1205 -1 359 29 538 119 708 25 46 45 86 45 87 0 2 -38
24 -85 49 -112 59 -182 114 -290 228 -205 215 -383 523 -645 1118 -62 140
-164 372 -227 515 -334 756 -595 1187 -913 1505 -173 173 -336 291 -533 385
-176 84 -378 143 -548 161 l-66 6 -11 103 c-62 568 -552 924 -1642 1194 -298
74 -541 123 -1205 246 -662 122 -958 183 -1240 255 -391 99 -704 211 -910 325
-49 28 -92 51 -95 53 -3 1 -38 -22 -77 -52z m178 -142 c192 -96 439 -186 739
-267 334 -92 619 -152 1405 -296 772 -142 1092 -211 1426 -307 774 -221 1178
-506 1279 -899 15 -57 20 -111 20 -200 l0 -123 78 -6 c443 -39 767 -187 1086
-496 343 -333 601 -767 1000 -1680 203 -466 231 -529 319 -711 241 -502 480
-820 740 -982 26 -17 47 -30 47 -31 0 -1 -16 -46 -35 -100 -65 -182 -79 -289
-79 -631 0 -367 7 -444 128 -1395 77 -603 89 -762 90 -1130 1 -392 -15 -537
-86 -760 -106 -333 -286 -518 -619 -633 -14 -4 -13 -17 8 -118 130 -648 -53
-1199 -608 -1824 -118 -133 -442 -455 -789 -782 -326 -307 -536 -531 -688
-731 -201 -264 -343 -546 -406 -808 l-17 -71 -137 -6 c-216 -10 -449 -56 -715
-143 -293 -96 -520 -190 -1107 -459 -722 -331 -1007 -443 -1364 -535 -273 -71
-378 -85 -656 -84 -216 0 -257 3 -350 22 -226 49 -429 133 -616 254 l-92 59
-85 -65 c-285 -214 -552 -294 -947 -283 -204 5 -330 24 -559 83 -375 96 -734
242 -1516 619 -225 109 -484 231 -575 272 -557 253 -932 356 -1230 340 l-108
-6 -7 46 c-10 69 -70 234 -125 342 -63 126 -165 279 -280 421 -130 161 -538
564 -840 830 -795 702 -1038 949 -1259 1282 -191 286 -274 527 -273 793 1 127
18 237 53 344 l22 65 -44 36 c-238 191 -376 409 -454 717 -41 164 -56 294 -62
543 -8 334 13 606 93 1190 121 891 137 1068 138 1460 1 389 -20 567 -96 819
l-32 104 24 16 c63 41 175 138 248 215 242 256 432 591 750 1326 338 780 450
1003 657 1315 119 178 203 283 335 416 309 312 668 483 1116 532 l109 12 6
125 c9 189 47 309 144 455 174 263 530 477 1055 636 332 100 708 177 1535 314
845 140 1200 215 1510 317 217 72 427 169 536 247 30 22 57 40 62 40 4 1 48
-20 98 -45z"/>
<path d="M8420 21269 c-58 -51 -211 -137 -331 -188 -332 -141 -682 -222 -1644
-381 -1177 -195 -1629 -312 -2034 -526 -291 -154 -503 -368 -592 -598 -34 -87
-69 -238 -69 -298 0 -31 -4 -38 -22 -42 -13 -2 -78 -13 -144 -25 -380 -65
-760 -279 -1030 -578 -288 -319 -493 -674 -804 -1388 -221 -509 -261 -598
-346 -771 -215 -435 -429 -718 -659 -868 -50 -33 -94 -63 -99 -67 -4 -4 3 -36
17 -71 104 -258 148 -623 127 -1042 -13 -260 -37 -491 -96 -926 -104 -772
-126 -996 -126 -1320 0 -124 5 -272 11 -330 49 -427 170 -711 403 -943 97 -97
99 -99 89 -130 -22 -68 -41 -215 -41 -317 0 -320 140 -657 415 -1000 191 -239
419 -466 840 -839 761 -675 985 -903 1181 -1201 136 -208 202 -377 229 -582 3
-27 9 -48 13 -48 4 1 34 7 67 15 80 20 278 19 396 -1 271 -46 603 -173 1183
-451 482 -232 694 -331 823 -389 427 -190 785 -307 1112 -366 172 -31 539 -33
671 -4 205 44 417 134 552 233 l62 46 46 -27 c190 -112 397 -194 600 -238 93
-20 133 -22 355 -23 277 0 357 9 604 70 359 89 664 206 1326 510 574 263 786
352 1048 440 280 93 495 135 735 142 165 6 172 7 176 27 59 297 134 479 295
719 183 273 330 433 881 957 356 338 480 462 621 620 339 381 528 724 609
1105 31 143 38 427 16 588 -9 64 -19 123 -22 131 -3 9 20 25 72 50 263 125
444 364 529 700 45 177 57 287 62 568 7 382 -9 597 -107 1358 -67 524 -87 718
-101 967 -23 409 23 703 135 882 15 23 26 44 24 45 -2 1 -34 17 -71 35 -130
63 -274 187 -389 337 -179 233 -324 509 -598 1139 -310 712 -457 1004 -655
1305 -212 320 -479 587 -741 738 -190 110 -459 196 -669 214 l-30 3 -7 85
c-29 389 -296 683 -823 911 -347 149 -826 274 -1610 419 -181 33 -463 86 -625
116 -857 161 -1323 294 -1678 479 -58 30 -110 55 -116 55 -6 -1 -27 -14 -46
-31z m92 -128 c56 -33 257 -120 385 -167 355 -128 729 -216 1668 -389 633
-117 899 -171 1178 -241 600 -151 974 -317 1205 -538 178 -170 252 -342 252
-585 l0 -97 123 -12 c539 -54 960 -337 1338 -899 189 -280 325 -551 636 -1263
352 -807 532 -1122 775 -1356 52 -51 127 -113 166 -139 64 -42 70 -50 61 -68
-55 -102 -98 -328 -106 -562 -10 -279 16 -578 121 -1400 82 -641 101 -891 93
-1220 -10 -412 -70 -664 -207 -872 -97 -147 -221 -246 -388 -309 -45 -17 -84
-33 -87 -36 -3 -2 4 -48 15 -100 63 -301 48 -611 -41 -882 -38 -115 -128 -303
-203 -424 -166 -267 -385 -516 -801 -910 -765 -723 -990 -980 -1173 -1338 -62
-123 -131 -306 -152 -407 l-11 -57 -92 0 c-111 0 -313 -29 -462 -65 -331 -81
-633 -199 -1310 -510 -602 -276 -893 -394 -1187 -479 -673 -195 -1206 -144
-1655 158 l-82 55 -66 -53 c-419 -334 -968 -374 -1708 -125 -298 100 -558 213
-1127 487 -774 372 -1009 470 -1302 546 -191 49 -265 60 -425 60 l-142 0 -6
35 c-36 189 -164 442 -336 664 -200 256 -410 463 -994 981 -395 350 -763 710
-899 881 -363 455 -482 836 -380 1220 14 55 28 109 31 120 3 16 -7 29 -41 53
-216 156 -383 443 -445 766 -35 184 -44 324 -38 606 7 305 22 461 107 1097 71
525 95 747 111 1013 24 402 -14 791 -102 1049 -11 30 -19 55 -19 56 0 1 26 19
58 40 77 51 283 261 354 360 191 270 303 488 601 1175 308 711 459 997 684
1299 108 145 327 364 453 453 160 114 379 213 575 262 76 19 260 46 312 46
l40 0 6 118 c8 136 31 233 81 339 176 369 638 625 1471 811 260 59 430 90
1075 197 764 128 1064 190 1360 282 221 68 447 170 561 252 30 22 55 40 56 40
1 1 17 -8 35 -18z"/>
<path d="M8390 20974 c-156 -116 -413 -221 -756 -307 -247 -63 -502 -112
-1109 -212 -925 -153 -1317 -244 -1680 -392 -519 -211 -799 -516 -842 -918
l-8 -69 -110 -18 c-136 -23 -231 -49 -360 -99 -227 -89 -402 -206 -595 -399
-314 -312 -516 -655 -868 -1470 -60 -140 -139 -321 -175 -402 -256 -570 -473
-881 -737 -1057 -52 -35 -96 -64 -97 -65 -2 -1 13 -47 33 -102 72 -200 101
-377 110 -659 10 -300 -13 -583 -105 -1264 -28 -201 -59 -449 -70 -551 -77
-706 -42 -1140 119 -1477 65 -138 137 -239 243 -344 79 -78 86 -89 78 -111 -5
-14 -17 -71 -27 -128 -51 -308 37 -628 265 -966 184 -273 421 -520 951 -989
393 -348 524 -469 670 -616 384 -386 579 -701 621 -1002 10 -72 15 -87 28 -83
202 58 426 38 746 -69 228 -76 483 -188 1035 -455 545 -263 842 -391 1127
-484 685 -223 1202 -198 1615 80 l83 56 45 -27 c25 -14 99 -53 165 -85 484
-236 1036 -221 1760 47 210 78 422 169 839 360 713 326 993 432 1321 498 147
30 348 49 436 42 l66 -6 16 94 c35 195 118 392 255 600 135 206 246 332 590
670 628 617 858 851 954 970 361 449 514 855 494 1310 -4 83 -13 184 -20 225
-8 41 -13 75 -13 76 1 1 43 22 93 48 404 207 577 681 536 1474 -14 271 -35
476 -107 1047 -85 669 -89 716 -89 1035 0 259 2 294 22 388 27 123 59 211 100
278 l31 49 -77 40 c-43 22 -101 57 -129 77 -89 66 -228 221 -317 355 -154 233
-241 407 -491 978 -307 704 -445 975 -636 1255 -146 214 -349 433 -517 558
-215 159 -477 268 -730 302 l-91 13 -6 66 c-39 410 -306 687 -880 914 -354
140 -730 230 -1738 417 -268 49 -585 110 -705 136 -535 112 -915 233 -1180
374 -51 28 -96 50 -100 50 -4 -1 -41 -26 -82 -56z m400 -227 c347 -137 752
-234 1690 -406 925 -170 1318 -265 1670 -402 424 -165 673 -370 763 -628 27
-74 31 -104 35 -217 l4 -132 37 -6 c20 -3 52 -6 72 -6 66 0 223 -32 333 -67
349 -112 650 -356 914 -741 198 -289 330 -549 627 -1227 334 -765 498 -1056
720 -1280 44 -45 112 -103 150 -130 39 -27 74 -52 78 -56 5 -3 -5 -47 -22 -95
-50 -146 -63 -244 -68 -504 -6 -292 7 -459 87 -1095 33 -258 69 -558 80 -665
109 -1065 -36 -1584 -500 -1787 -41 -18 -83 -33 -92 -33 -28 0 -29 -14 -8
-116 94 -454 9 -864 -263 -1278 -185 -281 -363 -472 -989 -1064 -263 -249
-451 -445 -584 -612 -200 -248 -344 -524 -407 -780 l-13 -55 -110 -7 c-294
-20 -571 -90 -959 -243 -168 -66 -351 -146 -830 -365 -705 -322 -1073 -446
-1459 -491 -145 -17 -446 -6 -561 20 -203 47 -379 122 -539 230 l-77 52 -47
-39 c-178 -147 -389 -239 -631 -273 -194 -27 -504 1 -766 71 -368 97 -659 219
-1540 645 -730 353 -1135 482 -1445 462 l-86 -5 -17 76 c-10 42 -37 123 -61
179 -145 339 -425 664 -1046 1213 -698 618 -899 819 -1100 1100 -268 376 -345
708 -244 1057 l25 88 -38 29 c-72 56 -199 191 -247 264 -172 260 -245 643
-218 1135 15 265 31 413 102 942 95 713 104 811 104 1180 1 262 -2 341 -17
435 -19 119 -55 273 -82 349 -8 24 -14 45 -13 45 34 16 180 141 246 211 219
232 393 544 705 1265 286 661 418 916 619 1197 335 468 726 708 1244 765 l104
11 0 81 c1 411 278 719 838 932 342 130 703 211 1622 364 800 134 1084 194
1391 296 145 48 378 157 464 217 l50 34 95 -47 c52 -26 147 -68 210 -93z"/>
<path d="M8661 19498 c-65 -222 -192 -513 -322 -734 -28 -49 -138 -219 -243
-379 -295 -448 -366 -610 -366 -837 0 -172 78 -394 212 -600 l43 -67 1 172 c1
247 36 427 126 637 55 129 116 237 283 495 173 269 172 266 233 390 103 207
148 410 139 625 -6 121 -34 299 -60 374 l-13 37 -33 -113z"/>
<path d="M8986 18879 c-3 -34 -6 -87 -6 -118 0 -88 -28 -295 -55 -411 -71
-295 -161 -486 -386 -812 -255 -370 -309 -507 -296 -753 7 -130 32 -236 95
-399 l46 -120 18 118 c43 290 115 447 341 745 250 329 319 474 357 741 16 111
13 390 -5 537 -14 110 -91 522 -99 531 -2 1 -6 -25 -10 -59z"/>
<path d="M9368 17872 c12 -303 -47 -614 -159 -832 -65 -127 -134 -216 -319
-413 -201 -214 -255 -304 -281 -468 -20 -131 6 -334 69 -534 l28 -90 13 83
c47 314 135 458 444 725 207 178 291 301 339 492 33 133 31 400 -5 607 -30
166 -120 538 -131 538 -1 0 -1 -48 2 -108z"/>
<path d="M4945 16664 c148 -335 364 -598 582 -708 128 -64 239 -92 533 -136
300 -44 461 -92 625 -185 155 -89 318 -232 455 -400 61 -74 223 -313 298 -436
39 -65 38 -57 -20 151 -105 379 -249 651 -441 836 -201 194 -375 269 -837 364
-279 56 -392 85 -528 131 -244 85 -457 213 -630 381 l-63 62 26 -60z"/>
<path d="M12296 16629 c-111 -100 -269 -206 -400 -269 -186 -89 -313 -125
-831 -234 -200 -42 -326 -81 -451 -141 -303 -146 -518 -424 -667 -867 -31 -90
-51 -160 -104 -363 -2 -11 24 27 59 85 314 516 606 787 974 903 105 33 187 49
437 87 114 17 247 42 295 56 270 78 467 248 647 559 47 82 140 267 132 264 -1
0 -42 -36 -91 -80z"/>
<path d="M4687 16227 c106 -261 267 -515 416 -654 174 -162 356 -236 692 -283
271 -37 353 -51 455 -75 494 -120 882 -433 1301 -1053 55 -80 99 -143 99 -140
0 17 -99 289 -147 403 -227 540 -511 893 -860 1069 -212 106 -333 138 -846
221 -522 85 -751 188 -1018 456 l-117 116 25 -60z"/>
<path d="M12542 16179 c-145 -150 -277 -242 -462 -321 -157 -68 -307 -104
-655 -158 -349 -55 -525 -100 -691 -175 -270 -123 -496 -333 -689 -640 -76
-120 -201 -374 -266 -538 -43 -109 -119 -322 -119 -334 0 -2 49 70 110 159
300 447 608 746 932 909 206 104 346 142 713 194 138 19 293 46 345 59 208 52
344 130 492 285 107 111 191 232 273 393 55 106 128 269 123 272 -2 1 -49 -46
-106 -105z"/>
<path d="M4636 15589 c100 -321 258 -574 456 -733 164 -132 381 -218 730 -291
534 -113 704 -161 901 -260 466 -233 813 -653 1092 -1320 45 -109 46 -110 40
-55 -77 696 -277 1203 -600 1525 -211 211 -457 344 -825 449 -123 35 -183 49
-603 141 -570 125 -841 250 -1098 505 l-117 115 24 -76z"/>
<path d="M12646 15608 c-98 -120 -288 -260 -471 -348 -188 -91 -405 -155 -841
-249 -300 -65 -451 -103 -599 -152 -140 -47 -350 -147 -452 -216 -407 -275
-654 -720 -777 -1398 -24 -129 -56 -357 -52 -362 1 -1 24 51 50 115 62 149
195 410 270 530 226 363 487 611 811 772 218 108 359 151 765 235 271 55 390
85 506 126 359 127 584 345 744 723 45 104 104 276 98 281 -2 1 -25 -24 -52
-57z"/>
<path d="M12725 14776 c-168 -170 -341 -282 -571 -371 -198 -77 -411 -126
-824 -190 -515 -80 -730 -135 -955 -247 -278 -139 -508 -373 -665 -679 -110
-215 -175 -396 -243 -674 -59 -242 -60 -237 35 -98 136 199 244 329 413 499
291 292 553 459 900 573 187 61 325 90 680 140 417 59 562 96 723 182 291 155
489 460 620 952 6 20 10 36 9 35 -1 0 -56 -56 -122 -122z"/>
<path d="M4470 14885 c0 -6 15 -59 34 -120 181 -595 443 -868 936 -976 48 -10
228 -39 401 -64 477 -68 670 -119 925 -244 396 -193 757 -529 1059 -984 32
-48 60 -85 63 -83 7 8 -46 237 -89 384 -124 424 -317 759 -557 967 -254 220
-554 337 -1072 420 -605 97 -737 124 -933 191 -278 96 -526 254 -702 447 -36
39 -65 67 -65 62z"/>
<path d="M4385 13988 c3 -13 14 -66 25 -118 123 -567 345 -892 709 -1040 157
-64 309 -93 731 -140 421 -47 634 -88 868 -167 366 -123 690 -326 1001 -628
148 -144 295 -310 286 -325 -3 -5 -12 -10 -19 -10 -8 0 -62 -30 -122 -66 -199
-121 -281 -154 -379 -154 -48 0 -70 5 -95 23 -42 28 -79 97 -87 165 -3 29 -9
52 -13 52 -13 0 -42 -105 -47 -172 -10 -124 32 -210 128 -263 51 -29 60 -30
169 -30 106 0 120 3 187 32 40 17 110 55 155 83 173 112 347 170 465 156 117
-14 227 -80 310 -187 26 -32 52 -59 58 -59 7 0 34 28 60 61 58 74 146 141 218
166 76 26 202 24 292 -6 76 -25 184 -80 311 -158 115 -70 176 -88 304 -88 95
0 110 3 157 27 90 48 132 124 133 239 0 69 -34 204 -49 195 -5 -3 -11 -28 -14
-56 -8 -65 -42 -128 -86 -157 -26 -18 -48 -23 -96 -23 -97 0 -187 36 -370 149
-53 33 -130 72 -171 87 -41 15 -74 30 -74 33 0 14 230 259 321 342 422 386
857 597 1421 689 68 11 245 34 393 50 149 17 325 40 392 51 504 83 767 301
948 784 36 97 105 355 120 445 l7 45 -45 -65 c-124 -182 -302 -316 -558 -422
-214 -88 -408 -137 -969 -242 -636 -120 -878 -187 -1159 -322 -180 -86 -312
-176 -438 -298 -140 -134 -219 -242 -303 -411 -83 -165 -131 -309 -168 -496
l-27 -136 -105 0 c-58 0 -127 -6 -155 -12 -66 -16 -179 -62 -240 -98 l-50 -29
-58 34 c-176 103 -400 135 -565 81 -18 -6 -35 -9 -37 -7 -2 1 -11 48 -20 103
-25 144 -78 332 -130 455 -232 548 -666 856 -1470 1039 -71 17 -287 60 -480
96 -639 120 -859 181 -1098 302 -181 93 -340 227 -432 366 -21 31 -40 57 -42
57 -2 0 -1 -10 2 -22z"/>
<path d="M2965 13234 c-27 -7 -162 -27 -300 -44 -137 -17 -268 -35 -290 -41
-94 -26 -158 -79 -196 -164 -44 -97 -34 -287 20 -393 30 -58 101 -118 162
-136 72 -22 136 -20 377 10 114 14 249 26 300 27 l94 2 -7 60 c-4 33 -8 61
-10 63 -2 2 -32 -3 -67 -12 -69 -17 -528 -76 -594 -76 -24 0 -62 11 -95 28
-46 23 -58 36 -83 84 -38 75 -47 186 -22 253 22 57 83 110 144 124 66 15 436
60 560 68 l103 6 -6 51 c-14 118 -9 113 -90 90z"/>
<path d="M14920 13229 c-25 -11 -241 -81 -480 -156 -239 -74 -436 -136 -436
-137 -1 0 -5 -14 -8 -31 l-6 -30 367 -220 c202 -121 401 -242 441 -268 41 -26
76 -47 77 -45 2 2 6 33 10 69 l7 66 -34 7 c-18 3 -82 34 -142 68 l-108 61 6
46 c3 25 13 112 22 193 l17 147 101 33 c58 18 123 32 153 33 49 0 52 1 57 30
13 72 18 155 10 154 -5 0 -29 -9 -54 -20z m-361 -409 c-9 -83 -19 -153 -22
-156 -5 -5 -278 148 -321 179 -18 13 -10 18 100 51 65 21 144 46 174 56 94 31
88 41 69 -130z"/>
<path d="M13965 12508 c-20 -93 -113 -456 -141 -555 -19 -68 -34 -129 -34
-135 0 -7 21 -22 47 -33 26 -11 50 -21 54 -23 3 -1 9 46 13 105 3 59 12 133
19 163 11 46 16 54 32 52 54 -9 649 -167 710 -188 39 -14 74 -26 79 -27 11 -2
44 102 45 141 1 20 -4 22 -45 22 -45 0 -752 174 -767 189 -9 9 44 164 84 243
16 32 29 60 29 63 0 3 -27 5 -60 5 -54 0 -60 -2 -65 -22z"/>
<path d="M3086 12373 c-61 -31 -685 -210 -761 -219 -60 -7 -64 -13 -44 -75 6
-19 12 -39 14 -46 3 -9 20 -5 58 12 48 21 568 177 573 172 1 -1 -103 -179
-232 -396 -129 -217 -234 -400 -234 -407 0 -7 4 -15 8 -18 5 -3 172 42 373
100 200 57 400 112 445 121 l81 16 -16 58 c-8 33 -19 59 -24 59 -4 0 -25 -9
-47 -20 -35 -18 -581 -182 -586 -177 -2 1 96 169 218 372 262 442 250 419 242
450 -7 29 -5 29 -68 -2z"/>
<path d="M13795 11646 c-84 -39 -149 -134 -185 -271 -7 -27 -23 -73 -35 -101
l-22 -50 54 -12 c30 -6 184 -63 341 -126 311 -124 380 -154 428 -186 l31 -20
32 77 c17 42 29 78 28 80 -2 2 -30 10 -62 18 -52 14 -284 101 -293 110 -3 2 6
28 18 58 l22 53 197 47 c108 26 210 47 226 47 28 0 32 5 63 83 42 108 41 113
-10 83 -36 -21 -371 -111 -442 -119 -14 -2 -21 9 -30 45 -18 66 -59 124 -114
159 -87 55 -166 63 -247 25z m158 -139 c64 -30 114 -79 129 -129 13 -43 -1
-128 -27 -165 -15 -21 -16 -21 -197 52 -100 40 -184 78 -186 84 -6 17 27 107
50 137 47 59 132 67 231 21z"/>
<path d="M3355 11479 c-87 -48 -628 -272 -712 -295 -35 -9 -63 -21 -63 -25 0
-4 9 -29 21 -56 11 -26 25 -58 30 -71 l9 -22 40 25 c50 32 94 51 405 180 138
57 284 113 325 125 41 13 76 24 77 25 2 1 -57 148 -61 151 0 1 -32 -16 -71
-37z"/>
<path d="M3448 11292 c-15 -26 -153 -210 -308 -410 -278 -359 -281 -364 -265
-388 10 -16 25 -24 43 -24 15 0 214 14 442 30 228 17 446 30 485 30 l70 -1
-43 -39 c-23 -21 -143 -110 -265 -198 -261 -187 -327 -232 -385 -261 l-43 -22
46 -62 c24 -34 86 -122 135 -194 50 -73 93 -133 96 -133 3 0 27 12 55 26 l51
25 -86 87 c-47 48 -99 106 -116 129 l-31 42 33 24 c90 68 262 187 269 187 11
0 40 -43 89 -132 23 -43 47 -78 53 -78 7 0 32 9 56 21 l45 20 -40 42 c-35 36
-82 93 -132 158 -11 15 3 28 110 104 68 49 130 90 138 92 18 4 85 -84 135
-180 39 -72 40 -73 113 -46 22 9 22 11 -36 86 -32 43 -96 130 -142 193 -46 63
-89 120 -95 125 -7 6 -24 33 -40 60 -15 28 -29 51 -31 53 -1 2 -13 -4 -26 -12
-19 -12 -112 -24 -369 -46 -189 -17 -354 -30 -366 -28 -19 3 2 34 168 248 247
318 252 324 287 341 l31 15 -45 82 c-25 45 -48 82 -52 82 -4 0 -19 -21 -34
-48z"/>
<path d="M8160 11184 c-140 -17 -270 -61 -433 -149 -203 -108 -374 -144 -463
-99 -54 28 -93 95 -101 170 l-6 59 -23 -50 c-104 -224 3 -398 254 -413 129 -7
218 19 427 122 231 115 285 131 450 131 129 0 131 0 207 -37 55 -26 99 -58
156 -112 43 -42 83 -76 88 -76 5 0 44 34 86 75 57 56 97 85 155 113 78 37 79
37 208 37 165 0 221 -16 450 -130 208 -104 298 -130 426 -123 133 8 227 57
271 141 33 66 34 126 3 222 -15 47 -31 83 -35 80 -4 -2 -10 -25 -13 -50 -19
-133 -112 -198 -252 -175 -93 15 -149 37 -330 126 -219 108 -319 136 -490 136
-142 1 -263 -27 -397 -89 l-83 -39 -83 39 c-141 65 -348 106 -472 91z"/>
<path d="M13312 10820 c-6 -11 -12 -24 -12 -30 0 -5 124 -181 275 -390 152
-209 283 -396 293 -415 9 -19 20 -35 24 -35 4 0 23 28 42 62 31 56 33 64 18
69 -23 9 -60 50 -131 144 -69 93 -75 59 51 278 59 101 85 137 99 137 69 0 219
-24 251 -40 28 -14 39 -16 46 -7 14 18 82 143 82 150 0 4 -31 7 -69 7 -38 0
-263 20 -500 45 -237 25 -437 45 -444 45 -7 0 -18 -9 -25 -20z m376 -149 c95
-10 175 -20 177 -22 6 -7 -143 -264 -153 -264 -10 0 -232 288 -232 300 0 8 19
6 208 -14z"/>
<path d="M8018 10755 c-119 -19 -247 -64 -407 -141 -197 -96 -295 -127 -406
-128 -75 -1 -97 3 -132 22 -55 29 -90 83 -107 163 l-14 64 -27 -59 c-20 -42
-30 -81 -33 -133 -4 -64 -1 -79 22 -127 43 -87 123 -134 265 -156 139 -22 288
14 507 121 243 118 383 155 558 147 159 -8 270 -60 398 -186 l67 -65 43 39
c144 133 301 194 497 194 168 0 322 -41 498 -132 189 -97 370 -139 504 -118
142 22 222 69 265 156 36 73 32 170 -10 259 l-28 60 -14 -65 c-39 -184 -177
-232 -429 -148 -33 11 -130 52 -215 93 -181 85 -287 120 -425 142 -195 29
-434 -12 -625 -107 l-55 -28 -57 29 c-187 95 -444 136 -640 104z"/>
<path d="M13079 10397 c-55 -70 -56 -72 -40 -96 22 -35 32 -542 10 -525 -104
80 -174 138 -218 181 -30 29 -58 50 -61 46 -72 -88 -90 -112 -90 -119 0 -5 25
-24 56 -43 76 -45 502 -380 590 -464 l72 -68 53 67 c36 45 49 69 40 72 -37 12
-385 271 -376 280 5 5 512 42 582 42 l63 0 60 76 c62 78 73 102 43 89 -10 -4
-34 -11 -53 -16 -41 -10 -657 -55 -664 -49 -8 9 -11 525 -3 563 4 20 4 37 0
37 -4 -1 -33 -33 -64 -73z"/>
<path d="M7968 10295 c-129 -21 -248 -65 -446 -163 -232 -115 -328 -147 -447
-147 -98 0 -136 13 -182 63 -38 41 -54 79 -68 156 l-13 71 -21 -46 c-103 -227
-40 -408 169 -481 54 -19 84 -23 180 -22 161 1 232 23 475 144 214 106 311
141 444 160 239 35 455 -52 614 -249 l28 -33 57 50 c167 145 340 212 547 212
179 0 294 -33 540 -155 210 -105 289 -128 445 -129 96 -1 126 3 182 22 205 71
271 252 170 472 l-25 55 -8 -60 c-13 -90 -54 -163 -113 -200 -46 -28 -56 -30
-140 -30 -121 1 -219 33 -446 146 -203 102 -318 143 -462 165 -211 32 -443 -9
-658 -116 l-75 -38 -77 39 c-210 106 -461 148 -670 114z"/>
<path d="M4220 9998 c-76 -85 -503 -473 -568 -516 -59 -39 -60 -34 17 -114
l44 -47 41 47 c46 51 167 169 207 201 l27 21 37 -46 38 -45 -43 -197 c-23
-108 -48 -208 -55 -222 -12 -23 -9 -29 53 -97 36 -40 68 -71 70 -68 3 3 5 29
3 58 -1 32 15 129 42 252 40 179 46 200 63 196 11 -2 51 -4 89 -4 58 -1 79 3
121 25 95 50 146 130 146 229 0 89 -33 146 -162 277 -62 61 -112 112 -113 111
-1 0 -27 -28 -57 -61z m171 -135 c71 -77 79 -139 29 -215 -71 -107 -187 -154
-276 -112 -35 17 -107 90 -102 104 2 4 68 67 147 138 156 141 152 140 202 85z"/>
<path d="M7960 9789 c-181 -15 -327 -64 -597 -196 -322 -159 -517 -190 -636
-99 -53 40 -96 123 -104 199 -3 31 -9 57 -13 57 -4 0 -17 -22 -29 -50 -95
-220 -50 -390 127 -479 82 -41 153 -55 272 -54 161 2 265 33 495 148 218 108
359 159 507 181 198 30 365 -7 525 -118 51 -34 183 -164 183 -179 0 -21 29 -5
75 43 103 105 233 180 380 219 110 29 294 30 421 1 124 -28 268 -83 399 -152
195 -103 326 -141 490 -143 364 -3 530 217 397 525 -13 32 -28 56 -32 53 -4
-2 -10 -27 -13 -54 -22 -183 -147 -271 -343 -241 -115 18 -208 51 -424 155
-107 51 -228 105 -268 119 -317 112 -676 85 -996 -76 l-59 -30 -96 45 c-222
103 -444 145 -661 126z"/>
<path d="M12327 9572 c-10 -10 -17 -23 -17 -29 0 -6 70 -210 155 -454 85 -244
158 -461 161 -481 4 -21 10 -38 13 -38 4 0 29 22 56 50 l49 50 -23 24 c-12 13
-42 76 -65 139 l-43 115 106 104 c58 57 122 118 141 136 l36 32 80 -34 c117
-49 161 -73 177 -96 13 -19 16 -18 80 41 37 33 67 64 67 69 0 5 -30 18 -66 30
-37 12 -250 97 -475 191 -224 93 -410 169 -412 169 -2 0 -11 -8 -20 -18z m306
-243 c95 -39 174 -73 176 -75 6 -6 -140 -154 -190 -195 l-36 -29 -63 173 c-35
94 -65 178 -68 185 -2 6 -1 12 3 12 3 0 84 -32 178 -71z"/>
<path d="M4693 9435 c-88 -44 -133 -126 -136 -245 -1 -36 3 -124 7 -197 10
-154 -2 -205 -58 -248 -113 -86 -256 57 -205 204 20 57 -3 57 -65 1 -31 -29
-56 -56 -56 -62 0 -5 11 -33 25 -62 110 -233 370 -266 478 -61 23 43 26 118
16 380 -4 129 0 144 49 197 48 52 114 45 172 -17 21 -22 25 -37 27 -93 1 -37
5 -68 10 -69 5 -2 29 17 53 42 l45 46 -24 45 c-29 55 -88 117 -133 140 -17 9
-59 19 -93 21 -50 4 -68 0 -112 -22z"/>
<path d="M11910 9194 c-30 -24 -56 -48 -58 -52 -1 -4 19 -30 45 -57 50 -52
417 -522 497 -637 61 -88 86 -159 86 -247 0 -50 4 -70 14 -74 18 -7 30 26 47
127 16 93 3 173 -41 261 -16 33 -127 186 -246 340 -119 154 -230 303 -246 332
-17 29 -33 53 -36 52 -4 0 -32 -20 -62 -45z"/>
<path d="M5176 9122 c-34 -68 -386 -546 -472 -641 -26 -29 -45 -53 -43 -55 2
-1 32 -24 66 -50 l62 -47 17 33 c43 84 420 595 492 666 24 24 42 45 40 46 -19
15 -116 84 -125 90 -8 4 -21 -10 -37 -42z"/>
<path d="M5345 8985 c-21 -25 -36 -47 -34 -49 2 -1 33 -13 69 -26 84 -29 220
-97 220 -110 0 -14 -356 -597 -402 -658 -22 -30 -37 -56 -34 -59 17 -17 131
-81 137 -77 4 2 10 17 14 32 6 29 69 140 270 475 72 119 134 217 139 217 14 0
132 -88 196 -147 l60 -55 14 34 c34 80 34 79 -51 127 -73 41 -476 286 -534
325 l-27 17 -37 -46z"/>
<path d="M11347 8809 l-69 -41 20 -22 c52 -58 388 -618 425 -709 12 -28 23
-54 24 -56 3 -5 143 78 143 85 0 3 -15 24 -34 45 -43 51 -358 579 -400 670
-17 38 -33 69 -36 69 -3 0 -36 -19 -73 -41z"/>
<path d="M10930 8584 c-30 -8 -84 -31 -120 -52 -36 -20 -91 -49 -122 -65 -32
-15 -58 -30 -58 -33 0 -2 16 -28 35 -57 43 -66 296 -600 327 -693 12 -38 24
-71 25 -73 1 -2 36 13 78 33 l76 36 -31 45 c-35 50 -152 287 -145 293 2 2 26
15 53 27 l50 23 183 -104 c101 -57 189 -110 197 -118 12 -12 27 -8 103 27 49
22 89 43 89 47 0 4 -18 10 -40 13 -24 3 -109 44 -222 107 -101 56 -187 106
-192 111 -6 5 0 27 14 56 49 98 33 226 -38 305 -68 75 -160 101 -262 72z m63
-78 c44 -18 102 -87 121 -144 38 -109 13 -191 -74 -244 -79 -47 -72 -53 -166
145 -46 98 -84 180 -84 183 0 7 74 50 105 62 41 14 60 14 98 -2z"/>
<path d="M6005 8213 c-344 -313 -401 -363 -416 -363 -27 0 -2 -23 47 -45 66
-29 84 -31 84 -9 0 20 165 191 192 200 13 4 82 -21 188 -67 l168 -72 6 -45 c9
-67 7 -162 -5 -207 -5 -22 -11 -46 -12 -54 -1 -8 29 -27 77 -47 43 -19 80 -33
81 -32 5 8 -17 1024 -23 1029 -4 4 -17 10 -29 13 -18 6 -77 -44 -358 -301z
m261 -270 c-4 -5 -266 104 -279 116 -4 4 57 68 135 142 l143 134 3 -194 c1
-107 1 -196 -2 -198z"/>
<path d="M10300 8335 c-113 -41 -213 -76 -223 -78 -17 -5 -16 -9 9 -58 34 -68
229 -651 248 -742 8 -38 16 -70 18 -72 2 -2 86 23 187 55 100 33 201 65 223
70 l40 11 -7 57 c-4 31 -8 58 -9 59 -1 1 -60 -27 -132 -63 -71 -35 -142 -66
-158 -67 -29 -2 -29 -2 -87 171 -67 201 -78 175 89 212 l102 23 0 41 c0 69 -5
70 -121 21 -159 -67 -143 -75 -200 95 -27 79 -49 147 -49 151 0 17 231 89 285
89 3 0 5 23 5 50 0 28 -3 50 -7 49 -5 -1 -100 -34 -213 -74z"/>
<path d="M6905 8271 c-111 -27 -170 -107 -169 -231 0 -85 18 -132 104 -275 59
-97 80 -152 80 -207 0 -165 -199 -189 -271 -33 -10 22 -19 52 -19 66 0 53 -26
40 -54 -27 -14 -35 -26 -71 -26 -78 0 -20 62 -72 120 -101 117 -59 227 -55
302 13 60 54 82 104 82 184 0 72 -4 81 -143 344 -25 47 -45 100 -48 127 -10
86 36 147 109 147 68 0 117 -36 141 -105 8 -21 18 -40 23 -42 6 -2 19 26 31
61 l21 65 -52 36 c-81 56 -157 74 -231 56z"/>
<path d="M9672 8170 c-137 -19 -235 -67 -324 -157 -110 -112 -157 -270 -125
-420 53 -242 220 -375 472 -376 156 0 288 44 385 130 l44 40 -13 79 c-6 43
-14 104 -16 134 -2 30 -7 56 -12 57 -11 4 -142 -22 -149 -29 -2 -3 3 -25 11
-49 23 -64 45 -176 39 -194 -18 -46 -154 -89 -265 -83 -181 11 -310 143 -356
364 -28 138 5 255 97 338 107 97 296 120 437 54 24 -11 46 -18 49 -15 6 6 -51
113 -64 121 -17 10 -152 14 -210 6z"/>
<path d="M7687 8033 c6 -68 -41 -637 -63 -767 -8 -49 -13 -90 -12 -92 2 -1 30
-4 62 -5 l59 -3 -2 70 c-2 58 34 549 42 578 2 5 131 -152 288 -350 181 -228
292 -360 305 -362 19 -3 21 11 53 385 18 214 39 422 47 463 7 40 13 74 11 75
-1 1 -30 5 -65 8 l-62 5 6 -47 c6 -49 -34 -601 -45 -613 -3 -4 -134 155 -290
353 -249 314 -288 359 -312 359 -27 0 -27 0 -22 -57z"/>
<path d="M8970 8060 c-41 -4 -144 -11 -228 -15 l-154 -8 6 -31 c21 -102 53
-706 44 -821 l-6 -66 237 7 c130 3 237 7 238 8 0 0 4 28 8 60 8 58 7 59 -16
54 -144 -32 -183 -39 -245 -45 l-72 -6 -6 74 c-3 41 -8 125 -12 188 l-6 113
132 -3 c146 -4 131 -12 144 70 l6 34 -52 -7 c-129 -18 -221 -26 -226 -21 -8 7
-23 317 -16 324 3 3 73 6 155 6 l149 0 15 44 c8 25 15 46 15 48 0 3 -4 3 -110
-7z"/>
<path d="M2815 3801 c-55 -21 -156 -64 -225 -95 -165 -76 -161 -75 -112 -25
44 46 53 69 27 69 -20 0 -183 -118 -196 -142 -6 -10 -19 -63 -29 -116 -16 -85
-17 -100 -4 -119 8 -13 24 -23 35 -23 12 0 138 59 281 130 143 72 272 130 286
130 23 0 24 -2 19 -42 -3 -23 -32 -96 -65 -163 -52 -106 -83 -150 -239 -346
-105 -131 -178 -231 -175 -239 51 -161 101 -203 173 -143 17 15 98 115 179
222 101 135 213 267 359 424 204 218 251 257 251 209 0 -46 -147 -271 -339
-517 -55 -71 -108 -145 -117 -164 -30 -62 -3 -185 46 -211 45 -24 78 2 232
188 160 192 264 300 423 436 72 62 136 116 143 120 7 4 -31 -51 -86 -124 -161
-213 -228 -361 -220 -484 7 -115 67 -182 155 -173 92 10 272 119 407 248 l73
69 6 -69 c11 -131 79 -211 181 -211 87 0 225 67 328 159 31 28 59 51 62 51 3
0 6 -17 7 -37 0 -55 20 -103 51 -126 26 -20 30 -20 62 -5 18 9 55 43 82 75 58
70 274 286 280 280 2 -2 -20 -40 -50 -85 -87 -130 -106 -223 -57 -284 16 -19
29 -23 69 -22 66 1 113 30 246 149 102 93 106 96 106 67 0 -38 24 -105 51
-144 26 -36 90 -67 140 -68 86 0 211 63 340 173 l67 56 6 -51 c13 -97 70 -170
144 -184 86 -16 225 39 340 136 37 30 104 98 149 150 l83 95 83 21 c45 12 84
20 86 18 2 -1 -18 -29 -44 -60 -115 -142 -134 -261 -52 -330 25 -21 38 -25 70
-21 54 7 137 60 228 145 50 47 80 69 83 60 34 -115 72 -168 120 -168 38 0 105
40 179 107 29 26 64 59 80 72 l28 25 -7 -70 c-20 -213 104 -230 323 -45 l73
62 14 -36 c35 -83 104 -143 149 -129 29 9 93 53 202 139 120 95 117 94 88 23
-35 -85 -37 -162 -4 -189 13 -10 33 -19 46 -19 35 0 153 64 230 125 61 47 71
53 80 38 53 -87 145 -138 250 -138 62 0 81 5 145 37 41 20 114 68 161 105 l85
69 11 -68 c22 -140 68 -155 142 -46 67 98 65 97 96 47 45 -71 114 -137 161
-155 73 -28 130 -5 286 118 49 37 90 68 93 68 3 0 5 -6 5 -13 0 -24 63 -109
94 -128 50 -31 81 -16 261 126 120 95 117 94 90 26 -45 -111 -42 -179 10 -203
49 -22 162 34 299 148 42 35 78 64 81 64 3 0 5 -17 6 -37 0 -55 20 -103 51
-126 26 -20 30 -20 62 -5 18 9 55 43 82 75 58 70 274 286 280 280 2 -2 -20
-40 -50 -85 -87 -130 -106 -223 -57 -284 16 -19 29 -23 69 -22 67 1 117 32
260 163 111 102 117 109 114 142 -2 19 -5 36 -7 38 -2 2 -41 -26 -86 -63 -126
-100 -181 -119 -187 -64 -5 38 19 78 101 169 108 121 108 121 90 183 -23 79
-32 84 -95 52 -94 -48 -240 -158 -355 -269 -99 -96 -133 -118 -133 -87 0 5 45
60 100 121 136 151 141 178 35 187 l-57 5 -62 -65 c-35 -35 -81 -97 -103 -137
-35 -63 -51 -80 -119 -127 -85 -59 -138 -80 -177 -70 -55 13 -41 60 52 180 65
84 74 113 41 146 -24 24 -25 30 -6 30 22 0 38 27 31 50 -9 30 -63 60 -106 60
-54 0 -202 -45 -298 -91 -141 -67 -247 -152 -305 -246 -17 -29 -54 -61 -117
-102 -101 -66 -143 -80 -190 -61 -27 12 -59 44 -59 61 0 4 39 28 86 53 164 88
232 155 241 238 5 52 -20 106 -58 127 -24 13 -32 13 -74 -4 -69 -26 -230 -137
-375 -259 -81 -68 -126 -100 -128 -90 -2 8 104 125 236 262 352 362 457 490
450 548 -5 47 -31 53 -91 21 -114 -59 -364 -286 -489 -442 -71 -89 -175 -247
-200 -301 -14 -32 -39 -58 -106 -107 -115 -85 -160 -107 -219 -106 l-48 0 25
17 c100 67 175 171 187 257 6 48 -20 211 -41 255 -27 57 -128 26 -142 -44 -5
-27 -40 -64 -196 -207 -104 -95 -198 -185 -209 -201 -34 -48 -137 -63 -153
-23 -9 25 16 73 83 159 65 84 74 113 41 146 -24 24 -25 30 -6 30 22 0 38 27
31 50 -9 30 -63 60 -106 60 -95 0 -327 -91 -443 -174 -66 -47 -140 -122 -157
-159 -11 -24 -161 -135 -204 -152 -47 -17 -60 2 -59 86 1 92 11 113 189 389
73 113 142 225 155 249 62 123 -8 189 -105 100 -56 -52 -109 -132 -182 -274
-30 -60 -57 -112 -59 -113 -1 -2 -16 6 -33 19 -30 22 -31 22 -98 6 -94 -23
-238 -97 -307 -159 -32 -28 -71 -75 -88 -105 -45 -79 -175 -183 -231 -183 -30
0 -57 24 -57 51 0 38 39 96 117 172 73 73 78 80 78 120 0 25 -8 55 -19 71 -18
29 -18 29 -100 22 -44 -3 -103 -9 -130 -13 -46 -6 -49 -5 -44 15 3 12 0 29 -7
38 -11 16 -16 16 -46 4 -44 -18 -136 -105 -159 -150 -31 -60 -30 -117 3 -129
21 -8 18 -13 -53 -82 -95 -94 -197 -149 -275 -149 -70 0 -105 26 -105 80 l0
38 94 37 c206 81 327 201 302 300 -14 54 -115 70 -225 36 -114 -35 -227 -128
-287 -236 -24 -42 -49 -68 -114 -115 -47 -34 -113 -75 -149 -93 -119 -58 -249
-44 -267 29 -12 47 8 76 101 146 50 37 92 68 95 68 3 0 13 -14 22 -30 31 -55
94 -29 169 70 59 79 65 159 13 182 -91 42 -412 -131 -494 -266 -23 -37 -61
-78 -109 -116 -119 -95 -173 -112 -179 -58 -5 38 19 78 101 169 108 121 108
121 90 183 -23 79 -32 84 -95 52 -94 -48 -240 -158 -355 -269 -99 -96 -133
-118 -133 -87 0 5 45 60 100 121 136 151 141 178 35 187 l-57 5 -62 -64 c-34
-35 -78 -92 -97 -126 -40 -71 -133 -151 -245 -209 -119 -62 -224 -40 -224 46
l0 38 94 37 c206 81 327 201 302 300 -19 77 -211 69 -336 -15 -56 -37 -134
-113 -161 -157 -11 -18 -24 -31 -29 -28 -4 3 -45 -29 -91 -71 -90 -81 -245
-190 -284 -200 -85 -21 -110 83 -51 212 38 83 98 165 275 379 197 236 211 256
211 287 0 30 -51 113 -79 127 -11 6 -28 11 -39 11 -23 0 -215 -155 -492 -398
-107 -93 -196 -169 -198 -167 -2 1 29 51 68 111 91 139 157 271 166 330 9 61
-12 105 -61 128 -87 42 -175 -16 -482 -318 -62 -61 -113 -106 -113 -101 0 5
23 67 51 138 59 151 59 162 -4 257 -53 81 -67 83 -202 31z m1705 -621 c0 -41
-202 -201 -225 -178 -20 20 83 141 151 177 50 26 74 27 74 1z m1970 0 c0 -41
-202 -201 -225 -178 -20 20 83 141 151 177 50 26 74 27 74 1z m2693 -155 c2
-92 -12 -121 -82 -169 l-40 -28 -37 41 c-20 23 -47 44 -60 47 -13 3 -24 10
-24 14 0 5 51 56 113 113 129 122 128 122 130 -18z m-1467 78 c-15 -30 -127
-143 -190 -193 -100 -78 -136 -86 -136 -30 0 93 68 153 250 221 93 35 94 35
76 2z m785 -84 c-183 -176 -291 -248 -326 -219 -8 7 -15 23 -15 37 0 87 127
181 350 259 52 19 97 34 100 33 3 0 -46 -49 -109 -110z m2230 0 c-183 -176
-291 -248 -326 -219 -8 7 -15 23 -15 37 0 87 127 181 350 259 52 19 97 34 100
33 3 0 -46 -49 -109 -110z m-634 76 c8 -22 -19 -48 -130 -125 l-99 -68 -29 17
c-16 9 -27 21 -26 26 6 19 116 100 178 132 71 36 97 40 106 18z"/>
<path d="M13255 3629 c-56 -52 -109 -132 -182 -274 -30 -60 -57 -112 -59 -113
-1 -2 -16 6 -33 19 -30 22 -31 22 -98 6 -152 -37 -331 -154 -391 -255 -22 -39
-27 -59 -27 -112 1 -70 28 -145 67 -187 43 -46 117 -19 231 84 29 26 64 59 80
72 l28 25 -7 -70 c-20 -213 104 -230 323 -45 l73 62 14 -36 c35 -83 104 -143
149 -129 29 9 93 53 202 139 120 95 117 94 90 26 -45 -111 -42 -179 10 -203
49 -22 162 34 299 148 42 35 78 64 81 64 3 0 5 -17 6 -37 0 -55 20 -103 51
-126 26 -20 30 -20 62 -5 18 9 55 43 82 75 58 70 274 286 280 280 2 -2 -20
-40 -50 -85 -87 -130 -106 -223 -57 -284 16 -19 29 -23 69 -22 67 1 117 32
260 163 111 102 117 109 114 142 -2 19 -5 36 -7 38 -2 2 -41 -26 -86 -63 -126
-100 -181 -119 -187 -64 -5 38 19 78 101 169 108 121 108 121 90 183 -23 79
-32 84 -95 52 -94 -48 -240 -158 -355 -269 -99 -96 -133 -118 -133 -87 0 5 45
60 100 121 136 151 141 178 35 187 l-57 5 -62 -65 c-35 -35 -81 -97 -103 -137
-35 -63 -51 -80 -119 -127 -85 -59 -138 -80 -177 -70 -55 13 -41 60 52 180 65
84 74 113 41 146 -24 24 -25 30 -6 30 22 0 38 27 31 50 -9 30 -63 60 -106 60
-95 0 -327 -91 -443 -174 -66 -47 -140 -122 -157 -159 -11 -24 -161 -135 -204
-152 -47 -17 -60 2 -59 86 1 92 11 113 189 389 73 113 142 225 155 249 62 123
-8 189 -105 100z m-319 -526 c-15 -30 -127 -143 -190 -193 -100 -78 -136 -86
-136 -30 0 93 68 153 250 221 93 35 94 35 76 2z m785 -84 c-183 -176 -291
-248 -326 -219 -8 7 -15 23 -15 37 0 87 127 181 350 259 52 19 97 34 100 33 3
0 -46 -49 -109 -110z"/>
<path d="M1035 1791 c-55 -21 -156 -64 -225 -95 -165 -76 -161 -75 -112 -25
44 46 53 69 27 69 -20 0 -183 -118 -196 -142 -6 -10 -19 -63 -29 -116 -16 -85
-17 -100 -4 -119 8 -13 24 -23 35 -23 12 0 138 59 281 130 143 72 272 130 286
130 23 0 24 -2 19 -42 -3 -23 -32 -96 -65 -163 -52 -106 -83 -150 -239 -346
-105 -131 -178 -231 -175 -239 51 -161 101 -203 173 -143 17 15 98 115 179
222 101 135 213 267 359 424 204 218 251 257 251 209 0 -46 -147 -271 -339
-517 -55 -71 -108 -145 -117 -164 -30 -62 -3 -185 46 -211 45 -24 78 2 232
188 160 192 264 300 423 436 72 62 136 116 143 120 7 4 -31 -51 -86 -124 -161
-213 -228 -361 -220 -484 7 -115 67 -182 155 -173 90 9 270 117 402 242 l68
65 6 -65 c9 -98 53 -169 120 -194 94 -36 258 29 398 158 l67 61 7 -48 c10 -68
40 -130 69 -143 40 -19 71 -3 126 63 92 111 281 308 296 308 22 0 17 -15 -33
-92 -103 -162 -125 -239 -77 -277 56 -44 78 -32 292 167 89 84 165 152 169
152 3 0 -2 -11 -11 -25 -40 -61 -86 -154 -96 -196 -10 -38 -9 -52 4 -82 21
-50 52 -63 111 -47 43 12 179 95 267 163 l37 29 15 -36 c35 -84 104 -144 149
-130 29 9 93 53 202 139 120 95 117 94 88 23 -35 -85 -37 -162 -4 -189 32 -26
55 -24 126 9 95 46 218 145 321 261 l94 106 83 21 c45 12 84 20 86 18 2 -1
-18 -29 -44 -60 -115 -142 -134 -261 -52 -330 25 -21 38 -25 70 -21 55 8 138
61 233 151 46 43 84 74 84 70 0 -5 -7 -31 -15 -58 -19 -63 -19 -100 1 -141 46
-97 185 -62 371 93 78 64 93 72 93 49 0 -24 63 -109 94 -128 50 -31 81 -16
261 126 120 95 117 94 88 23 -35 -85 -37 -162 -4 -189 13 -10 33 -19 45 -19
53 0 211 98 317 197 l47 44 7 -53 c19 -144 75 -190 188 -153 55 18 153 83 201
134 21 22 39 31 62 31 18 0 61 9 95 20 35 10 64 18 64 17 1 -1 7 -20 13 -42
24 -85 107 -164 155 -149 29 9 93 53 202 139 120 95 117 94 88 23 -35 -85 -37
-162 -4 -189 13 -10 33 -19 45 -19 55 0 214 100 324 203 28 28 52 46 52 41 0
-5 -7 -31 -15 -58 -19 -63 -19 -100 1 -141 22 -48 62 -62 132 -47 69 14 139
56 251 149 l86 72 13 -62 c27 -131 69 -142 141 -35 68 99 64 98 105 35 49 -73
115 -133 164 -148 68 -20 140 13 292 136 l80 65 14 -35 c35 -83 105 -143 149
-129 29 9 93 53 202 139 120 95 117 94 88 23 -35 -85 -37 -162 -4 -189 13 -10
33 -19 46 -19 39 0 157 66 248 139 48 39 89 71 91 71 2 0 6 -23 9 -51 7 -58
27 -95 61 -110 34 -16 75 9 132 78 58 70 274 286 280 280 2 -2 -20 -40 -50
-85 -87 -130 -106 -223 -57 -284 16 -19 29 -23 69 -22 67 1 117 32 260 163
111 102 117 109 114 142 -2 19 -5 36 -7 38 -2 2 -41 -26 -86 -63 -126 -100
-181 -119 -187 -64 -5 38 19 78 101 169 108 121 108 121 90 183 -23 79 -32 84
-95 52 -94 -48 -240 -158 -355 -269 -99 -96 -133 -118 -133 -87 0 5 45 60 100
121 136 151 141 178 35 187 l-57 5 -63 -65 c-35 -36 -81 -99 -105 -142 -36
-66 -53 -84 -113 -127 -77 -54 -132 -75 -170 -65 -55 13 -41 60 52 180 65 84
74 113 41 146 -24 24 -25 30 -6 30 22 0 38 27 31 50 -9 30 -63 60 -106 60 -95
0 -327 -91 -443 -174 -66 -47 -140 -122 -157 -159 -20 -44 -227 -177 -276
-177 -43 0 -103 43 -103 74 0 2 39 25 86 50 164 88 232 155 241 238 5 52 -20
106 -58 127 -24 13 -32 13 -74 -4 -69 -26 -230 -137 -375 -259 -81 -68 -126
-100 -128 -90 -2 8 104 125 236 262 352 362 457 490 450 548 -5 47 -31 53 -91
21 -114 -59 -364 -286 -489 -442 -75 -94 -176 -248 -203 -310 -19 -41 -37 -60
-101 -106 -133 -95 -191 -118 -222 -87 -34 34 1 148 82 273 l56 85 49 0 c95 0
142 35 197 143 l34 67 -34 0 c-64 0 -68 7 -35 53 35 49 34 78 -3 91 -48 17
-111 -16 -160 -84 -34 -47 -49 -59 -70 -60 -50 0 -127 -21 -153 -42 -24 -19
-99 -122 -111 -151 -4 -11 9 -13 72 -9 l77 5 -19 -34 c-10 -19 -72 -87 -137
-151 -121 -119 -193 -168 -248 -168 -24 0 -59 22 -59 36 0 20 37 82 89 148 65
84 74 113 41 146 -24 24 -25 30 -6 30 22 0 38 27 31 50 -9 30 -63 60 -106 60
-54 0 -202 -45 -298 -91 -106 -50 -195 -113 -258 -183 -26 -29 -62 -61 -80
-70 -32 -16 -108 -23 -101 -8 2 4 15 32 30 62 43 86 54 140 37 175 -10 20 -23
31 -41 33 -72 8 -191 -105 -224 -215 -11 -38 -11 -50 0 -78 14 -32 13 -34 -21
-69 -82 -84 -158 -51 -158 70 l0 53 211 213 c285 288 378 409 405 526 11 44
10 54 -5 77 -15 23 -23 26 -48 21 -72 -14 -250 -149 -393 -297 -155 -160 -246
-318 -280 -484 -9 -44 -17 -80 -18 -81 -1 -1 -39 -27 -84 -57 -82 -56 -133
-75 -171 -63 -49 16 -34 64 57 180 65 84 74 113 41 146 -24 24 -25 30 -6 30
22 0 38 27 31 50 -9 30 -63 60 -106 60 -95 0 -327 -91 -443 -174 -66 -47 -140
-122 -157 -159 -11 -23 -124 -108 -194 -146 -44 -23 -85 -27 -103 -9 -34 34 1
148 82 273 l56 85 49 0 c95 0 142 35 197 143 l34 67 -34 0 c-64 0 -68 7 -35
53 35 49 34 78 -3 91 -48 17 -111 -16 -160 -84 -34 -47 -49 -59 -70 -60 -50 0
-127 -21 -153 -42 -24 -19 -99 -122 -111 -151 -4 -11 9 -13 72 -9 l77 5 -19
-34 c-24 -43 -247 -267 -295 -297 -43 -26 -81 -28 -103 -6 -38 37 -6 102 101
207 73 73 78 80 78 120 0 25 -8 55 -19 71 -18 29 -18 29 -100 22 -44 -3 -103
-9 -130 -13 -46 -6 -49 -5 -44 15 3 12 0 29 -7 38 -11 16 -16 16 -46 4 -44
-18 -136 -105 -159 -150 -30 -59 -30 -117 1 -129 20 -7 17 -13 -45 -79 -97
-103 -199 -148 -240 -106 -9 8 -16 18 -16 20 0 20 37 82 89 148 65 84 74 113
41 146 -24 24 -25 30 -6 30 22 0 38 27 31 50 -9 30 -63 60 -106 60 -54 0 -202
-45 -298 -91 -105 -50 -193 -112 -249 -175 -81 -92 -99 -109 -154 -142 -105
-62 -148 -66 -156 -14 -5 31 18 68 107 170 96 111 100 123 55 193 -13 22 -32
39 -42 39 -9 0 -107 -70 -217 -156 -110 -86 -206 -162 -214 -168 -19 -15 -11
1 45 80 94 133 115 203 74 244 -11 11 -30 20 -43 20 -63 0 -209 -106 -402
-291 -62 -60 -118 -109 -124 -109 -33 0 3 61 97 162 77 83 105 128 96 152 -8
22 -69 31 -115 17 -51 -15 -135 -101 -177 -179 -25 -46 -50 -73 -112 -122
-116 -89 -199 -130 -264 -130 -72 0 -106 26 -106 80 l0 38 94 37 c206 81 327
201 302 300 -19 77 -211 69 -336 -15 -46 -30 -150 -128 -150 -140 0 -4 -48
-50 -106 -101 -108 -97 -232 -187 -284 -209 -94 -39 -129 68 -66 206 38 83 98
165 275 379 197 236 211 256 211 287 0 30 -51 113 -79 127 -11 6 -28 11 -39
11 -23 0 -215 -155 -492 -398 -107 -93 -196 -169 -198 -167 -2 1 29 51 68 111
91 139 157 271 166 330 9 61 -12 105 -61 128 -87 42 -175 -16 -482 -318 -62
-61 -113 -106 -113 -101 0 5 23 67 51 138 59 151 59 162 -4 257 -53 81 -67 83
-202 31z m6366 -180 c-37 -72 -142 -201 -272 -334 l-130 -132 46 79 c63 109
155 224 268 334 52 50 97 92 101 92 3 0 -3 -18 -13 -39z m-4671 -441 c0 -41
-202 -201 -225 -178 -20 20 83 141 151 177 50 26 74 27 74 1z m1791 -161
c-183 -176 -291 -248 -326 -219 -8 7 -15 23 -15 37 0 87 127 181 350 259 52
19 97 34 100 33 3 0 -46 -49 -109 -110z m1890 0 c-183 -176 -291 -248 -326
-219 -8 7 -15 23 -15 37 0 87 127 181 350 259 52 19 97 34 100 33 3 0 -46 -49
-109 -110z m1480 0 c-183 -176 -291 -248 -326 -219 -8 7 -15 23 -15 37 0 87
127 181 350 259 52 19 97 34 100 33 3 0 -46 -49 -109 -110z m2120 0 c-183
-176 -291 -248 -326 -219 -8 7 -15 23 -15 37 0 87 127 181 350 259 52 19 97
34 100 33 3 0 -46 -49 -109 -110z m-644 76 c8 -22 -19 -48 -130 -125 l-99 -68
-29 17 c-16 9 -27 21 -26 26 6 19 116 100 178 132 71 36 97 40 106 18z"/>
<path d="M12595 1813 c-174 -20 -487 -93 -554 -127 -67 -35 -201 -218 -201
-275 0 -43 33 -44 148 -7 59 18 127 37 152 41 64 10 93 30 80 55 -9 18 -3 21
72 44 269 81 446 105 547 76 44 -12 81 -47 81 -76 0 -72 -209 -173 -413 -200
l-51 -7 65 79 c36 43 74 92 85 108 l18 29 -44 -7 c-80 -12 -162 -60 -263 -156
l-95 -90 -78 -10 c-162 -22 -220 -52 -194 -100 11 -20 66 -40 113 -40 15 0 27
-3 27 -6 0 -3 -29 -46 -65 -95 -120 -163 -136 -214 -92 -299 58 -116 267 -141
535 -64 173 50 324 149 374 247 34 68 7 128 -79 171 -52 26 -192 62 -316 82
-110 17 -117 19 -100 34 11 10 75 28 156 44 335 65 514 160 553 292 36 126
-33 215 -192 249 -63 13 -194 17 -269 8z m-96 -719 c96 -18 165 -51 169 -82 7
-49 -134 -135 -273 -168 -168 -39 -329 20 -289 106 5 10 40 53 78 96 l70 76
85 -6 c47 -4 120 -14 160 -22z"/>
<path d="M15557 1320 c-15 -12 -29 -35 -33 -54 -5 -27 -32 -58 -142 -157 -75
-68 -179 -166 -230 -217 -52 -51 -103 -97 -114 -103 -14 -7 4 35 63 148 l83
158 -20 40 c-14 29 -26 41 -45 43 -23 3 -44 -16 -149 -131 -144 -158 -205
-201 -284 -202 -46 0 -51 2 -54 23 -10 70 43 119 238 223 85 45 170 93 188
106 59 44 34 93 -46 93 -44 0 -186 -54 -261 -99 -65 -38 -103 -73 -239 -215
-73 -77 -175 -148 -215 -150 -28 -1 -32 3 -35 26 -5 38 19 78 101 169 108 121
108 121 90 183 -23 79 -32 84 -95 52 -94 -48 -240 -158 -355 -269 -99 -96
-133 -118 -133 -87 0 5 45 60 100 121 136 151 141 178 35 187 l-57 5 -63 -65
c-35 -36 -81 -99 -105 -142 -36 -66 -53 -84 -113 -127 -77 -54 -132 -75 -170
-65 -55 13 -41 60 52 180 65 84 74 113 41 146 -24 24 -25 30 -6 30 22 0 38 27
31 50 -9 30 -63 60 -106 60 -54 0 -202 -45 -298 -91 -197 -93 -321 -219 -321
-324 0 -96 100 -219 163 -199 29 9 93 53 202 139 120 95 117 94 88 23 -35 -85
-37 -162 -4 -189 13 -10 33 -19 46 -19 39 0 157 66 248 139 48 39 89 71 91 71
2 0 6 -23 9 -51 7 -58 27 -95 61 -110 34 -16 75 9 132 78 58 70 274 286 280
280 2 -2 -20 -40 -50 -85 -87 -130 -106 -223 -57 -284 16 -19 29 -23 69 -22
65 1 113 29 238 142 l99 90 11 -44 c28 -106 77 -145 154 -125 54 14 154 79
233 150 31 29 57 50 57 46 0 -4 -25 -56 -56 -114 -44 -82 -67 -114 -102 -141
-26 -19 -90 -78 -143 -131 -113 -113 -171 -210 -151 -254 14 -30 39 -32 90 -6
78 40 211 184 300 324 21 34 68 76 158 144 70 53 129 92 131 87 31 -92 171
-172 283 -162 66 7 161 54 262 131 l87 66 11 -33 c15 -47 67 -114 102 -132 46
-24 79 -7 253 131 120 95 117 94 88 23 -35 -85 -37 -162 -4 -189 13 -10 33
-19 45 -19 58 0 251 125 342 222 33 35 40 48 35 71 l-6 28 -80 -56 c-86 -60
-139 -81 -178 -71 -55 13 -41 60 52 180 65 84 74 113 41 146 -24 24 -25 30 -6
30 22 0 38 27 31 50 -9 30 -63 60 -106 60 -54 0 -202 -45 -298 -91 -128 -61
-241 -148 -293 -227 -20 -29 -149 -127 -210 -158 -31 -16 -63 -24 -95 -23
l-48 0 25 17 c100 67 175 171 187 257 6 48 -20 211 -41 255 -16 34 -72 39
-109 10z m-24 -305 c2 -92 -12 -121 -82 -169 l-40 -28 -37 41 c-20 23 -47 44
-60 47 -13 3 -24 10 -24 14 0 5 51 56 113 113 129 122 128 122 130 -18z
m-2182 -6 c-183 -176 -291 -248 -326 -219 -8 7 -15 23 -15 37 0 87 127 181
350 259 52 19 97 34 100 33 3 0 -46 -49 -109 -110z m2930 0 c-183 -176 -291
-248 -326 -219 -8 7 -15 23 -15 37 0 87 127 181 350 259 52 19 97 34 100 33 3
0 -46 -49 -109 -110z"/>
</g>
</svg>
